<?xml version="1.0" encoding="UTF-8" standalone="no"?>
<!-- Created with Inkscape (http://www.inkscape.org/) -->

<svg
   xmlns:dc="http://purl.org/dc/elements/1.1/"
   xmlns:cc="http://creativecommons.org/ns#"
   xmlns:rdf="http://www.w3.org/1999/02/22-rdf-syntax-ns#"
   xmlns:svg="http://www.w3.org/2000/svg"
   xmlns="http://www.w3.org/2000/svg"
   xmlns:sodipodi="http://sodipodi.sourceforge.net/DTD/sodipodi-0.dtd"
   xmlns:inkscape="http://www.inkscape.org/namespaces/inkscape"
   width="1189mm"
   height="841mm"
   viewBox="0 0 1189 841"
   version="1.1"
   id="svg8"
   inkscape:version="0.92.3 (unknown)"
   sodipodi:docname="a1map1.svg">
  <defs
     id="defs2">
    <inkscape:path-effect
       effect="bspline"
       id="path-effect821"
       is_visible="true"
       weight="33.333333"
       steps="2"
       helper_size="0"
       apply_no_weight="true"
       apply_with_weight="true"
       only_selected="false" />
    <inkscape:path-effect
       effect="bspline"
       id="path-effect817"
       is_visible="true"
       weight="33.333333"
       steps="2"
       helper_size="0"
       apply_no_weight="true"
       apply_with_weight="true"
       only_selected="false" />
  </defs>
  <sodipodi:namedview
     id="base"
     pagecolor="#ffffff"
     bordercolor="#666666"
     borderopacity="1.0"
     inkscape:pageopacity="0.0"
     inkscape:pageshadow="2"
     inkscape:zoom="0.17727627"
     inkscape:cx="1575.192"
     inkscape:cy="1462.8265"
     inkscape:document-units="mm"
     inkscape:current-layer="g831"
     showgrid="false"
     inkscape:window-width="1853"
     inkscape:window-height="1025"
     inkscape:window-x="67"
     inkscape:window-y="27"
     inkscape:window-maximized="1" />
  <metadata
     id="metadata5">
    <rdf:RDF>
      <cc:Work
         rdf:about="">
        <dc:format>image/svg+xml</dc:format>
        <dc:type
           rdf:resource="http://purl.org/dc/dcmitype/StillImage" />
        <dc:title></dc:title>
      </cc:Work>
    </rdf:RDF>
  </metadata>
  <g
     inkscape:label="Calque 1"
     inkscape:groupmode="layer"
     id="layer1"
     transform="translate(0,544)">
    <g
       id="g831"
       transform="matrix(1.4159791,0,0,1.4043102,-0.37019603,-120.59383)">
      <path
         sodipodi:nodetypes="cccccccccccccccccccccsscccccccssccccccccccccccccscccccccccccsssscccccccccscccccccccccccc"
         inkscape:connector-curvature="0"
         id="path851"
         d="M 5.3453906,119.53301 C 9.6217026,108.84223 28.86511,63.940952 28.86511,63.940952 L 63.075608,43.628467 99.424268,28.661385 135.77292,10.48705 h 33.14142 l 57.73022,5.345377 c 0,0 28.86511,8.55263 32.07234,12.828958 3.20723,4.276301 14.96708,21.381561 17.10526,26.726938 9.52224,15.456227 5.19734,11.224207 10.69076,28.865111 l 41.69405,-9.621696 v 0 l 7.48355,-25.657876 4.27632,-29.934182 10.69078,-38.486821 14.96709,-33.141417 29.91915,-23.657985 25.64282,-16.04246 41.72413,-10.690777 c 0,0 53.34862,-3.21981 58.694,-0.0126 28.1698,-4.00434 80.79164,1.62464 87.7697,23.676846 4.27632,17.105251 13.89803,44.901291 17.10526,58.799298 3.20722,13.8980067 9.6217,72.697313 11.75985,81.249942 2.13815,8.552601 7.48355,26.726953 9.6217,34.210503 -0.63026,5.137121 -5.77487,-50.045518 -0.88856,-56.560601 L 640.75384,5.116493 635.40848,-40.778448 C 603.13756,-125.6644 533.60278,-102.99552 462.91081,-102.97978 l -41.72413,10.690777 c 0,0 -13.88294,8.558917 -25.64282,16.04246 -11.75986,7.48355 -27.01278,15.948185 -31.28908,23.431731 -4.2763,7.483547 -22.37544,19.406818 -24.51359,29.028523 -2.13815,9.621679 -23.29406,26.7897848 -24.36316,31.0661128 -1.06908,4.2763012 -7.48353,10.6907802 -11.75986,11.7598562 -4.2763,1.069075 -13.898,2.138151 -13.898,2.138151 h -20.31249 -12.82894 -6.41446 L 189.22682,10.48705 h -28.8651 -22.45064 L 121.87491,9.4179748 102.6315,6.2107218 84.457169,-0.2037302 64.144686,-11.963586 39.555891,-32.276072 23.519717,-50.450407 10.690781,-84.660904 c 0,0 -2.1381564,-20.312486 -3.2072344,-24.588796 -1.069078,-4.27632 -5.3453904,-49.17759 -5.3453904,-49.17759 l 3.2072344,-37.41773 6.4144694,-32.07235 5.34539,-6.41447 24.588797,-41.69404 56.661141,-1.06908 c 0,0 33.096292,1.16964 36.303532,7.58411 -1.59999,4.2315 32.71022,5.4366 52.62551,2.47124 5.34539,0 33.2768,-5.41452 33.2768,-5.41452 l 38.38152,-1.20106 44.9464,-11.89812 c 0,0 61.82602,-8.60919 73.58588,-8.60919 11.75986,0 112.16294,-4.31402 116.43924,-4.31402 4.27633,0 121.87491,2.13815 136.842,3.20723 14.96711,1.06908 122.94399,2.13816 140.04925,3.20724 17.10523,1.06907 45.97034,47.03943 45.97034,47.03943 l 21.38158,40.62497 1.06908,37.41773 v 44.90128 l -1.06908,38.486816 v 38.486812 26.726953 L 837.08816,192.23033 825.13275,263.846 c 0,0 -10.60053,10.67192 -19.15315,17.08639 -8.55263,6.41447 -50.24667,17.10525 -50.24667,17.10525 l -56.55585,-1.03766 -94.07887,-4.27631 -85.45104,-3.25123 -20.25231,-10.72849 c -18.76282,1.9604 -28.48851,-12.66223 -46.10574,-11.75986 -4.26482,0.31599 -25.71805,0.0377 -25.71805,0.0377 l -74.77529,19.2874 -43.83221,6.41447 -47.03943,-1.06908 -102.6315,1.06908 L 34.210499,282.03289 2.1381562,245.68423 6.4144687,117.39486"
         style="fill:none;stroke:#000000;stroke-width:2.5;stroke-linecap:butt;stroke-linejoin:miter;stroke-miterlimit:4;stroke-dasharray:none;stroke-opacity:1" />
      <g
         id="g823">
        <path
           style="fill:none;stroke:#000000;stroke-width:2.5;stroke-linecap:butt;stroke-linejoin:miter;stroke-miterlimit:4;stroke-dasharray:none;stroke-opacity:1"
           d="m 748.49003,0.90305075 -8.68798,-137.94878075 -19.22837,-20.35019 -33.06621,-26.72695 -43.81715,-22.45693 c 0,0 -95.25325,-12.78494 -104.87496,-11.71586 -9.6217,1.06907 -89.80257,7.48354 -89.80257,7.48354 l -87.6644,14.96709 -52.38482,29.93419 -39.5559,43.83221 -42.83833,20.53873 -39.69128,9.609133 c 0,0 -36.39378,-7.452117 -41.73917,-8.521193 -5.34539,-1.06907 -3.84005,-40.50557 -3.84005,-40.50557"
           id="path853"
           inkscape:connector-curvature="0"
           sodipodi:nodetypes="cccccsccccccsc" />
      </g>
      <path
         sodipodi:nodetypes="ccccccsccccccccscsccccccccccccc"
         inkscape:connector-curvature="0"
         id="path855"
         d="m 748.49003,0.90305075 -3.3426,107.93917925 -17.10525,51.31575 -14.96709,34.21049 -37.41774,27.79604 c 0,0 -71.62821,-1.06907 -75.90454,-3.20723 -4.2763,-2.13817 -36.34864,-24.58881 -40.62497,-27.79604 -4.2763,-3.20722 -10.69078,-22.45063 -11.75986,-26.72696 -1.06907,-4.2763 -3.20722,-37.41772 -4.2763,-44.90127 -1.06907,-7.48356 -12.69357,-43.819636 -12.69357,-55.579492 0,-11.759856 -15.93086,-41.756893 -16.99996,-47.10227 -1.06907,-5.345404 -23.77544,-2.295282 -26.98266,-6.57161 -0.93718,-1.5562437 -14.49578,11.063497 -22.66123,13.979727 -2.97409,13.198827 -15.99383,6.613936 -20.25232,19.350257 -2.13815,5.345377 -11.78994,52.372237 -11.78994,52.372237 l -13.88297,31.009541 -28.6846,41.71921 -27.79604,23.51971 c 0,0 -34.2105,7.48355 -42.76313,7.48355 -8.5526,0 -55.59205,-8.55263 -59.86836,-9.6217 -4.27631,-1.06908 -41.69405,-10.69078 -41.69405,-10.69078 0,0 -7.64901,-26.70809 -9.78717,-30.98442 -2.13816,-4.2763 -23.33921,-19.29998 -23.33921,-19.29998 l -33.42723,-4.30143 -26.81721,12.84149 -5.48938,31.06612 8.00361,27.80861 c 7.83991,-1.7818 16.73385,0.68758 24.57375,-1.09422 l 23.51972,-4.27631 29.93419,-1.06908 13.89801,-10.69078"
         style="fill:none;stroke:#000000;stroke-width:2.5;stroke-linecap:butt;stroke-linejoin:miter;stroke-miterlimit:4;stroke-dasharray:none;stroke-opacity:1" />
      <path
         inkscape:connector-curvature="0"
         id="path857"
         d="m 389.14443,168.71061 21.38156,-14.96711 18.17433,-3.20723 42.76312,-1.06907 33.14142,7.48355 22.45064,9.62171 18.17433,9.6217 11.75986,10.69078"
         style="fill:none;stroke:#000000;stroke-width:2.5;stroke-linecap:butt;stroke-linejoin:miter;stroke-miterlimit:4;stroke-dasharray:none;stroke-opacity:1" />
      <path
         sodipodi:nodetypes="cccc"
         inkscape:connector-curvature="0"
         id="path859"
         d="m 141.29884,-140.95753 55.11067,-2.11302 27.63056,-2.11301 84.9235,-20.72728"
         style="fill:none;stroke:#000000;stroke-width:2.5;stroke-linecap:butt;stroke-linejoin:miter;stroke-miterlimit:4;stroke-dasharray:none;stroke-opacity:1" />
    </g>
  </g>
</svg>
