<?xml version="1.0" encoding="UTF-8" standalone="no"?>
<!-- Created with Inkscape (http://www.inkscape.org/) -->

<svg
   xmlns:dc="http://purl.org/dc/elements/1.1/"
   xmlns:cc="http://creativecommons.org/ns#"
   xmlns:rdf="http://www.w3.org/1999/02/22-rdf-syntax-ns#"
   xmlns:svg="http://www.w3.org/2000/svg"
   xmlns="http://www.w3.org/2000/svg"
   xmlns:sodipodi="http://sodipodi.sourceforge.net/DTD/sodipodi-0.dtd"
   xmlns:inkscape="http://www.inkscape.org/namespaces/inkscape"
   width="1189mm"
   height="841mm"
   viewBox="0 0 1189 841"
   version="1.1"
   id="svg990"
   inkscape:version="0.92.3 (unknown)"
   sodipodi:docname="a1map3.svg">
  <defs
     id="defs984" />
  <sodipodi:namedview
     id="base"
     pagecolor="#ffffff"
     bordercolor="#666666"
     borderopacity="1.0"
     inkscape:pageopacity="0.0"
     inkscape:pageshadow="2"
     inkscape:zoom="0.175"
     inkscape:cx="1751.3944"
     inkscape:cy="1410.9682"
     inkscape:document-units="mm"
     inkscape:current-layer="layer1"
     showgrid="false"
     inkscape:window-width="1853"
     inkscape:window-height="1025"
     inkscape:window-x="67"
     inkscape:window-y="27"
     inkscape:window-maximized="1" />
  <metadata
     id="metadata987">
    <rdf:RDF>
      <cc:Work
         rdf:about="">
        <dc:format>image/svg+xml</dc:format>
        <dc:type
           rdf:resource="http://purl.org/dc/dcmitype/StillImage" />
        <dc:title></dc:title>
      </cc:Work>
    </rdf:RDF>
  </metadata>
  <g
     inkscape:label="Calque 1"
     inkscape:groupmode="layer"
     id="layer1"
     transform="translate(0,544)">
    <path
       style="fill:none;stroke:#000000;stroke-width:180.26499939;stroke-linecap:butt;stroke-linejoin:miter;stroke-miterlimit:4;stroke-dasharray:none;stroke-opacity:1"
       d="m 152.70238,-427.20236 93.73809,3.02381 104.32143,34.77381 63.5,96.76191 c 0,0 25.70239,48.38096 31.74999,86.17856 6.04764,37.79764 24.19049,63.5 30.23809,81.64287 6.04764,18.14285 36.28573,55.940458 52.91667,61.988092 16.63097,6.047608 65.01193,39.309509 71.05953,40.821417 6.04761,1.511909 60.47621,-3.023817 68.03573,-3.023817 7.55951,0 49.89284,-19.654743 49.89284,-19.654743 l 40.82144,-33.261915 c 0,0 22.67856,-55.940484 24.19047,-69.547604 1.51191,-13.60715 4.53572,-87.69049 4.53572,-110.36906 0,-22.67857 9.07143,-75.59524 12.09522,-83.15476 3.02381,-7.55952 25.70239,-61.98809 31.75,-69.54762 6.04763,-7.55952 45.35715,-43.84523 65.0119,-49.89285 19.65476,-6.04762 63.5,-7.55953 63.5,-7.55953 l 54.4286,27.21429 9.0714,31.75 c 0,0 13.6072,65.0119 15.1191,71.05952 1.5119,6.04762 9.0714,57.45238 10.5833,65.01192 1.5119,7.55951 12.0952,45.35712 13.6071,55.94045 1.5119,10.58334 10.5834,30.2381 12.0953,54.42858 1.5119,24.19048 3.0238,77.107148 4.5357,84.666664 1.5119,7.559516 4.5357,87.690483 6.0476,98.273816 1.5119,10.583333 0,33.261908 0,60.476182 0,27.214278 -3.0238,65.011908 -12.0952,77.107148 -9.0715,12.09522 3.4091,28.03141 -31.75,28.72619 -123.24421,2.43544 -244.92861,-9.07142 -244.92861,-9.07142 l -207.13095,36.2857 c 0,0 -102.80952,-6.04763 -137.58331,-4.53572 -34.77382,1.51191 -190.50002,4.53572 -190.50002,4.53572 l -108.85713,-3.02381 -49.89286,-39.30952 c 0,0 -15.119043,-86.178562 -16.630949,-104.321438 C 84.666668,49.047633 208.64286,23.345242 210.15476,-6.8928505 211.66666,-37.130941 199.57143,-117.2619 204.10714,-156.57141 c 4.53572,-39.30952 -120.95238,-52.91667 -113.392855,-96.76191 7.559524,-43.84523 7.559523,-125.48809 7.559523,-125.48809 z"
       id="path1598"
       inkscape:connector-curvature="0"
       sodipodi:nodetypes="ccccsccssccssccscccssssssscsccscccsssscc" />
  </g>
</svg>
