<?xml version="1.0" encoding="UTF-8" standalone="no"?>
<!-- Created with Inkscape (http://www.inkscape.org/) -->

<svg
   xmlns:dc="http://purl.org/dc/elements/1.1/"
   xmlns:cc="http://creativecommons.org/ns#"
   xmlns:rdf="http://www.w3.org/1999/02/22-rdf-syntax-ns#"
   xmlns:svg="http://www.w3.org/2000/svg"
   xmlns="http://www.w3.org/2000/svg"
   xmlns:sodipodi="http://sodipodi.sourceforge.net/DTD/sodipodi-0.dtd"
   xmlns:inkscape="http://www.inkscape.org/namespaces/inkscape"
   width="1600mm"
   height="1189mm"
   viewBox="0 0 1600 1189"
   version="1.1"
   id="svg1433"
   inkscape:version="0.92.3 (unknown)"
   sodipodi:docname="aMaxmap7.svg">
  <defs
     id="defs1427" />
  <sodipodi:namedview
     id="base"
     pagecolor="#ffffff"
     bordercolor="#666666"
     borderopacity="1.0"
     inkscape:pageopacity="0.0"
     inkscape:pageshadow="2"
     inkscape:zoom="0.12374369"
     inkscape:cx="2513.9254"
     inkscape:cy="2152.9569"
     inkscape:document-units="mm"
     inkscape:current-layer="layer1"
     showgrid="false"
     width="10000000mm"
     height="1189mm"
     inkscape:window-width="1853"
     inkscape:window-height="1025"
     inkscape:window-x="67"
     inkscape:window-y="27"
     inkscape:window-maximized="1" />
  <metadata
     id="metadata1430">
    <rdf:RDF>
      <cc:Work
         rdf:about="">
        <dc:format>image/svg+xml</dc:format>
        <dc:type
           rdf:resource="http://purl.org/dc/dcmitype/StillImage" />
        <dc:title></dc:title>
      </cc:Work>
    </rdf:RDF>
  </metadata>
  <g
     inkscape:label="Calque 1"
     inkscape:groupmode="layer"
     id="layer1"
     transform="translate(0,892)">
    <path
       style="fill:none;stroke:#000000;stroke-width:140.065;stroke-linecap:butt;stroke-linejoin:miter;stroke-miterlimit:4;stroke-dasharray:none;stroke-opacity:1"
       d="m 111.18411,-891.81482 c 0,0 -7.16224,178.02614 51.31576,230.92086 44.71332,40.44425 139.13618,-23.30942 179.60511,21.38157 49.28397,54.42568 55.4474,167.57474 4.27632,220.23008 -54.144,55.71448 -178.37674,-53.0481 -233.05903,2.13816 -47.155214,47.58982 -47.710149,153.95323 1e-5,200.98668 32.21584,31.7589 260.59955,-8.25118 318.49332,-21.29637 51.40985,-11.58417 81.51292,-7.57084 126.24318,-27.8812 148.01253,-67.20704 -61.98219,-357.50803 -12.82895,-487.49963 32.08261,-84.8463 246.30061,-86.58697 267.26951,0 52.76287,217.8739 54.02625,461.37172 -2.0068,723.783765 -4.17713,19.5621926 -179.73649,48.090618 -179.73649,48.090618 L 277.96031,-49.381285 c 0,0 -111.52986,-32.539348 -145.39463,2.138156 -55.27553,56.6021025 -75.496132,222.100559 2.13816,237.335349 335.68293,65.87372 587.79302,64.74861 850.98615,-49.1776 81.62961,-35.33432 -29.55965,-371.86793 68.42101,-335.69053 494.9282,754.25425 483.9933,37.7231 466.118,-121.8749 -12.144,-108.42618 -223.934,24.70269 -327.1378,-10.69077 -69.9877,-24.00208 -179.6052,-130.42754 -179.6052,-130.42754 l -10.6907,-226.64455 318.5852,138.98016 115.4604,-1e-5 -2.1381,-348.51947"
       id="path1978"
       inkscape:connector-curvature="0"
       sodipodi:nodetypes="caaaassssssccasscaaccccc" />
  </g>
</svg>
